<svg width="700" height="280" viewBox="0 0 700 280" fill="none" xmlns="http://www.w3.org/2000/svg">
<g clip-path="url(#clip0_67_2)">
<path d="M0 202.767C2.69589 198.383 20.4064 167.876 28.6438 156.185L85.9315 133.717L71.6096 98.0954L91.5479 31.7851L142.096 0L192.644 30.6891L205.562 64.3922L214.034 98.0954L198.26 133.717L254.986 155.089L283.068 202.767L141.534 282.778L0 202.767Z" fill="#647F94"/>
<path d="M0 202.767C2.69589 198.383 20.4064 167.876 28.6438 156.185L85.9315 133.717M0 202.767L141.534 282.778L283.068 202.767M0 202.767L71.6096 242.224L93.7945 205.507L116.534 215.94L143.219 197.287L171.034 215.94L190.397 205.507L218.479 239.174L283.068 202.767M0 202.767L25.8356 170.982L30.3288 187.971L42.1233 159.474L73.5753 183.038V148.513L85.9315 133.717M85.9315 133.717L71.6096 98.0954L91.5479 31.7851L142.096 0L192.644 30.6891L205.562 64.3922L214.034 98.0954L198.26 133.717M85.9315 133.717L100.534 155.089L128.055 166.05L78.6301 98.0954L103.342 66.8583L141.534 56.994L180.849 66.8583L206.123 98.0954L157.26 166.05L184.781 155.089L198.26 133.717M198.26 133.717L254.986 155.089L283.068 202.767M198.26 133.717L211.178 148.513V181.394L241.507 159.474L254.986 187.971L258.918 170.982L283.068 202.767" stroke="black" stroke-width="0.536232"/>
<path d="M30.3288 187.97L25.8356 170.982L0 202.767L71.6096 242.224L93.7945 205.507L116.534 215.939L143.219 197.287L171.034 215.939L190.397 205.507L218.479 239.174L283.068 202.767L258.918 170.982L254.986 187.97L241.507 159.473L211.178 181.394V148.513L198.26 133.717L184.781 155.089L157.26 166.05L206.123 98.0953L180.849 66.8582L141.534 56.9939L103.342 66.8582L78.6301 98.0953L128.055 166.05L100.534 155.089L85.9315 133.717L73.5753 148.513V183.038L42.1233 159.473L30.3288 187.97Z" fill="#302C4D"/>
<path d="M335.038 88.2743V207.889H320.553V88.2743H335.038ZM430.316 118.178C429.615 112.26 426.773 107.665 421.789 104.394C416.805 101.124 410.692 99.4882 403.45 99.4882C398.154 99.4882 393.521 100.345 389.549 102.058C385.617 103.771 382.541 106.127 380.321 109.125C378.141 112.123 377.051 115.53 377.051 119.346C377.051 122.539 377.81 125.284 379.328 127.581C380.886 129.84 382.872 131.728 385.286 133.247C387.7 134.726 390.231 135.953 392.878 136.926C395.526 137.861 397.96 138.62 400.179 139.204L412.327 142.475C415.442 143.292 418.908 144.422 422.724 145.862C426.578 147.303 430.258 149.269 433.762 151.761C437.306 154.214 440.226 157.368 442.523 161.223C444.82 165.078 445.969 169.808 445.969 175.415C445.969 181.879 444.275 187.72 440.888 192.937C437.539 198.155 432.633 202.301 426.17 205.377C419.745 208.454 411.938 209.992 402.749 209.992C394.183 209.992 386.765 208.609 380.496 205.845C374.267 203.08 369.36 199.225 365.778 194.28C362.235 189.335 360.23 183.592 359.762 177.051H374.714C375.104 181.567 376.622 185.305 379.27 188.265C381.957 191.185 385.344 193.365 389.432 194.806C393.56 196.208 397.999 196.909 402.749 196.909C408.278 196.909 413.242 196.013 417.642 194.222C422.042 192.392 425.527 189.861 428.097 186.629C430.667 183.359 431.952 179.543 431.952 175.182C431.952 171.21 430.842 167.978 428.623 165.486C426.403 162.995 423.483 160.97 419.862 159.412C416.241 157.855 412.327 156.492 408.122 155.324L393.404 151.119C384.059 148.432 376.661 144.597 371.21 139.613C365.759 134.629 363.033 128.107 363.033 120.047C363.033 113.35 364.844 107.509 368.465 102.525C372.125 97.5024 377.031 93.6087 383.183 90.8442C389.374 88.0407 396.285 86.639 403.917 86.639C411.627 86.639 418.48 88.0213 424.476 90.7858C430.472 93.5114 435.222 97.2493 438.727 102C442.27 106.75 444.139 112.143 444.334 118.178H430.316ZM507.519 207.889H470.606V88.2743H509.154C520.757 88.2743 530.686 90.669 538.941 95.4582C547.195 100.209 553.523 107.042 557.923 115.959C562.322 124.836 564.522 135.466 564.522 147.848C564.522 160.308 562.303 171.035 557.864 180.029C553.425 188.985 546.962 195.877 538.474 200.705C529.985 205.494 519.667 207.889 507.519 207.889ZM485.091 195.04H506.584C516.474 195.04 524.67 193.132 531.173 189.316C537.675 185.5 542.523 180.068 545.716 173.021C548.909 165.973 550.505 157.582 550.505 147.848C550.505 138.192 548.928 129.879 545.774 122.909C542.62 115.9 537.909 110.527 531.64 106.789C525.371 103.012 517.564 101.124 508.219 101.124H485.091V195.04ZM589.641 207.889V88.2743H661.363V101.124H604.126V141.54H655.99V154.389H604.126V207.889H589.641Z" fill="black"/>
</g>
<defs>
<clipPath id="clip0_67_2">
<rect width="700" height="280" fill="white"/>
</clipPath>
</defs>
</svg>
