<svg width="285" height="285" viewBox="0 0 285 285" fill="none" xmlns="http://www.w3.org/2000/svg">
<path d="M1 203.767C3.69589 199.383 21.4064 168.876 29.6438 157.185L86.9315 134.717L72.6096 99.0954L92.5479 32.7851L143.096 1L193.644 31.6891L206.562 65.3922L215.034 99.0954L199.26 134.717L255.986 156.089L284.068 203.767L142.534 283.778L1 203.767Z" fill="#647F94"/>
<path d="M1 203.767C3.69589 199.383 21.4064 168.876 29.6438 157.185L86.9315 134.717M1 203.767L142.534 283.778L284.068 203.767M1 203.767L72.6096 243.224L94.7945 206.507L117.534 216.94L144.219 198.287L172.034 216.94L191.397 206.507L219.479 240.174L284.068 203.767M1 203.767L26.8356 171.982L31.3288 188.971L43.1233 160.474L74.5753 184.038V149.513L86.9315 134.717M86.9315 134.717L72.6096 99.0954L92.5479 32.7851L143.096 1L193.644 31.6891L206.562 65.3922L215.034 99.0954L199.26 134.717M86.9315 134.717L101.534 156.089L129.055 167.05L79.6301 99.0954L104.342 67.8583L142.534 57.994L181.849 67.8583L207.123 99.0954L158.26 167.05L185.781 156.089L199.26 134.717M199.26 134.717L255.986 156.089L284.068 203.767M199.26 134.717L212.178 149.513V182.394L242.507 160.474L255.986 188.971L259.918 171.982L284.068 203.767" stroke="black" stroke-width="0.536232"/>
<path d="M31.3288 188.97L26.8356 171.982L1 203.767L72.6096 243.224L94.7945 206.507L117.534 216.94L144.219 198.287L172.034 216.94L191.397 206.507L219.479 240.174L284.068 203.767L259.918 171.982L255.986 188.97L242.507 160.473L212.178 182.394V149.513L199.26 134.717L185.781 156.089L158.26 167.05L207.123 99.0954L181.849 67.8583L142.534 57.9939L104.342 67.8583L79.6301 99.0954L129.055 167.05L101.534 156.089L86.9315 134.717L74.5753 149.513V184.038L43.1233 160.473L31.3288 188.97Z" fill="#302C4D"/>
</svg>
